<?xml version="1.0" standalone="no"?>
<!DOCTYPE svg PUBLIC "-//W3C//DTD SVG 20010904//EN"
 "http://www.w3.org/TR/2001/REC-SVG-20010904/DTD/svg10.dtd">
<svg version="1.0" xmlns="http://www.w3.org/2000/svg"
 width="500.000000pt" height="500.000000pt" viewBox="0 0 500.000000 500.000000"
 preserveAspectRatio="xMidYMid meet">

<g transform="translate(0.000000,500.000000) scale(0.100000,-0.100000)"
fill="#000000" stroke="none">
<path d="M2343 3835 c-85 -23 -149 -61 -226 -135 -106 -100 -162 -214 -174
-355 -7 -88 9 -168 54 -265 31 -69 50 -91 244 -283 115 -114 221 -214 235
-223 24 -16 26 -16 57 12 198 180 396 379 440 443 103 150 102 407 -3 571 -68
106 -202 202 -326 234 -76 20 -230 20 -301 1z m274 -265 c52 -23 115 -87 145
-148 32 -65 32 -179 0 -239 -59 -113 -144 -166 -262 -167 -59 -1 -85 4 -121
22 -210 103 -227 385 -31 511 81 52 179 59 269 21z"/>
<path d="M1810 2699 c-117 -46 -194 -118 -253 -237 -38 -77 -42 -92 -45 -177
-5 -115 18 -201 77 -290 54 -83 784 -809 833 -830 21 -8 54 -15 75 -15 83 1
109 22 525 438 437 437 433 433 466 592 40 196 -69 410 -255 502 -65 32 -72
33 -183 33 -111 0 -118 -1 -185 -34 -59 -29 -94 -59 -219 -184 l-148 -150
-149 151 c-188 191 -231 215 -383 219 -84 3 -110 -1 -156 -18z"/>
</g>
</svg>
